<svg width="92" height="20" viewBox="0 0 92 20" fill="none" xmlns="http://www.w3.org/2000/svg">
    <path d="M6.79688 2.50781H7.00781C7.77344 2.50781 8.61719 2.78125 9.53906 3.32812C10.0391 3.78125 10.3438 4.00781 10.4531 4.00781H10.5938C10.7188 3.92969 10.7812 3.84375 10.7812 3.75V3.70312L10.6641 3.35156C10.6641 3.28906 10.7188 3.25 10.8281 3.23438C10.9219 3.26563 11.0078 3.32812 11.0859 3.42188H11.1328V3.35156C11.1328 3.17969 11.0156 2.99219 10.7812 2.78906C10.8438 2.74219 11.0078 2.71875 11.2734 2.71875C11.3359 2.71875 11.6172 2.875 12.1172 3.1875C12.2266 3.1875 12.2812 3.24219 12.2812 3.35156V5.55469C12.2812 6.58594 12.2031 7.17969 12.0469 7.33594L12.0234 7.40625L12.0938 7.5V7.52344C12.0938 7.75781 11.75 7.875 11.0625 7.875C10.9062 7.95312 10.8047 7.99219 10.7578 7.99219H10.6641C10.6641 7.74219 10.4844 7.29688 10.125 6.65625C9.85938 5.625 9.60938 5.01562 9.375 4.82812C9.125 4.53125 8.42188 4.28906 7.26562 4.10156L6.58594 4.03125L5.67188 4.125L5.50781 3.96094C5.22656 3.99219 4.72656 4.32812 4.00781 4.96875L3.96094 5.15625V5.20312H4.05469C4.69531 4.67188 5.15625 4.33594 5.4375 4.19531V4.24219C5.0625 4.64844 4.375 5.17188 3.375 5.8125C2.95312 6.125 2.63281 6.55469 2.41406 7.10156C2.02344 7.99219 1.82812 8.86719 1.82812 9.72656C1.82812 11.2109 2.00781 12.2891 2.36719 12.9609C2.99219 14.6641 3.71094 15.875 4.52344 16.5938C5.57031 17.1719 6.5625 17.4609 7.5 17.4609H7.875C8.34375 17.4609 8.85156 17.2891 9.39844 16.9453C9.58594 16.5859 10 16.1484 10.6406 15.6328C11.1719 15.2109 11.4375 14.8672 11.4375 14.6016V14.5312L11.4141 13.8984C11.4141 13.8516 11.5078 13.7656 11.6953 13.6406C11.6953 13.5781 11.7344 13.5234 11.8125 13.4766H11.8828L12.4453 13.5703H12.8438C12.9688 13.5703 13.0312 13.6797 13.0312 13.8984C13.1875 14.6172 13.2656 15.1562 13.2656 15.5156C13.2656 16.3125 13.1641 16.9688 12.9609 17.4844V17.5547L12.9844 17.7188L12.8672 17.9062V17.9531C12.8672 17.9844 13 18.0234 13.2656 18.0703V18.1172L11.7188 18.8672H11.6719C11.4219 18.5391 11.2266 18.1562 11.0859 17.7188L11.0625 17.6953C10.8594 17.7734 10.5078 17.9688 10.0078 18.2812C8.77344 18.7969 8.01562 19.0547 7.73438 19.0547L6.32812 18.6328L6.04688 18.5859H5.90625L5.60156 18.6797C5.24219 18.6797 4.66406 18.5156 3.86719 18.1875C3.22656 18.0312 2.67969 17.6016 2.22656 16.8984C1.13281 15.3203 0.585938 14.1016 0.585938 13.2422C0.445312 12.6797 0.375 12.25 0.375 11.9531C0.390625 11.7969 0.492188 11.7188 0.679688 11.7188L0.726562 11.9297V12.0469H0.820312L0.914062 11.9766V11.8828C0.914062 11.6797 0.734375 11.5391 0.375 11.4609C0.328125 11.4609 0.296875 10.6094 0.28125 8.90625C0.28125 8.53125 0.492188 7.83594 0.914062 6.82031C0.945312 6.82031 0.984375 6.59375 1.03125 6.14062C1.09375 6.125 1.15625 5.94531 1.21875 5.60156C1.6875 5.07031 2.26562 4.57812 2.95312 4.125C3.25 3.84375 3.70312 3.57031 4.3125 3.30469C5.48438 2.77344 6.3125 2.50781 6.79688 2.50781ZM6 3.02344V3.09375H6.04688C6.25 3.07813 6.35156 3.03125 6.35156 2.95312L6.28125 2.92969H6.25781C6.10156 2.92969 6.01562 2.96094 6 3.02344ZM7.54688 2.92969H7.52344V3L7.89844 3.07031H7.94531L7.99219 3C7.99219 2.95312 7.84375 2.92969 7.54688 2.92969ZM3.98438 3.77344V3.82031H4.00781C4.27344 3.75781 4.57812 3.60938 4.92188 3.375V3.35156L4.875 3.32812H4.85156C4.50781 3.39062 4.21875 3.53906 3.98438 3.77344ZM7.40625 3.5625C7.40625 3.625 7.74219 3.71094 8.41406 3.82031L8.53125 3.91406H8.69531L8.76562 3.82031V3.77344C8.60938 3.77344 8.44531 3.69531 8.27344 3.53906C7.97656 3.41406 7.76562 3.35156 7.64062 3.35156C7.48438 3.35156 7.40625 3.42188 7.40625 3.5625ZM10.1953 4.24219H10.125V4.28906C10.25 4.47656 10.3672 4.57031 10.4766 4.57031H10.5L10.5938 4.5V4.47656C10.4531 4.32031 10.3203 4.24219 10.1953 4.24219ZM3.75 4.73438H3.82031C3.88281 4.71875 3.92969 4.67969 3.96094 4.61719H3.91406C3.85156 4.61719 3.79688 4.65625 3.75 4.73438ZM3.49219 5.03906H3.58594L3.67969 4.96875V4.875C3.55469 4.875 3.49219 4.92969 3.49219 5.03906ZM10.4766 4.96875L10.4297 5.03906V5.08594L10.5 5.13281L10.5938 5.03906L10.5 4.96875H10.4766ZM1.92188 5.60156C2.10938 5.60156 2.24219 5.53125 2.32031 5.39062V5.32031H2.22656C2.07031 5.32031 1.96875 5.41406 1.92188 5.60156ZM11.2734 6.49219L11.2266 6.53906V6.60938L11.2969 6.63281L11.3672 6.5625L11.3438 6.49219H11.2734ZM10.8984 7.05469V7.10156C11.1641 7.02344 11.2969 6.94531 11.2969 6.86719C11.2656 6.80469 11.2266 6.75781 11.1797 6.72656H11.0859C10.9609 6.85156 10.8984 6.96094 10.8984 7.05469ZM10.9922 7.42969L10.8984 7.52344V7.64062H10.9922C11.0859 7.64062 11.1484 7.60156 11.1797 7.52344V7.5L11.1328 7.42969H10.9922ZM1.54688 8.46094V8.50781H1.61719L1.73438 8.41406V8.25H1.64062C1.57812 8.29688 1.54688 8.36719 1.54688 8.46094ZM0.820312 8.69531H0.773438L0.679688 9.04688V9.25781H0.726562C0.789062 9.25781 0.820312 9.17969 0.820312 9.02344V8.69531ZM0.726562 9.49219H0.632812V9.60938H0.726562L0.773438 9.5625L0.726562 9.49219ZM1.35938 11.3672V11.7891C1.39062 12.1641 1.60156 12.6328 1.99219 13.1953L2.03906 13.2422H2.13281V13.125C1.83594 12.2344 1.625 11.3438 1.5 10.4531H1.47656C1.39844 10.4531 1.35938 10.7578 1.35938 11.3672ZM0.914062 10.5938H0.890625L0.867188 10.7344V10.9453L0.9375 11.0391L1.00781 10.9688V10.8281C1.00781 10.6875 0.976562 10.6094 0.914062 10.5938ZM0.867188 12.3281H0.796875V12.3984L0.890625 12.4688H0.914062V12.3984L0.867188 12.3281ZM1.40625 13.2656L1.33594 13.3125C1.33594 13.4062 1.375 13.4688 1.45312 13.5H1.47656L1.54688 13.4766V13.4062L1.40625 13.2656ZM1.38281 13.8984H1.35938V13.9453C1.42188 14.2891 1.50781 14.4609 1.61719 14.4609H1.64062C1.70312 14.4609 1.73438 14.4297 1.73438 14.3672L1.38281 13.8984ZM12 14.5078L11.9297 14.5312V14.5781L12.0469 14.6953H12.0938C12.2656 14.6641 12.3516 14.625 12.3516 14.5781V14.5312L12.3281 14.5078H12ZM12.2578 15.0469V15.1406C12.3047 15.2344 12.3672 15.2812 12.4453 15.2812C12.5078 15.2188 12.5391 15.125 12.5391 15V14.8828C12.5391 14.8359 12.5078 14.8125 12.4453 14.8125C12.3203 14.8594 12.2578 14.9375 12.2578 15.0469ZM12 15.1172L11.9297 15.1641V15.4688L12.0234 15.5625H12.0469L12.1172 15.4922V15.3281C12.1172 15.2188 12.0781 15.1484 12 15.1172ZM2.625 15.3516V15.375C2.875 15.8594 3.08594 16.1016 3.25781 16.1016V16.0078C2.96094 15.6016 2.75 15.3828 2.625 15.3516ZM1.85156 15.4219L1.80469 15.4922L1.85156 15.5625H1.89844L1.96875 15.4922L1.89844 15.4219H1.85156ZM11.2734 15.6797L11.2266 15.7266V15.7969H11.3438L11.4141 15.7266V15.6797H11.2734ZM12.1172 15.6797H12.0234V15.7734H12.0938L12.1172 15.7031V15.6797ZM2.08594 15.7969H2.0625V15.8203C2.0625 15.8672 2.10938 15.9766 2.20312 16.1484H2.32031V16.1016C2.32031 15.9922 2.24219 15.8906 2.08594 15.7969ZM11.0625 16.1016V16.1484H11.0859L11.2266 16.0781V16.0078H11.1797C11.1016 16.0391 11.0625 16.0703 11.0625 16.1016ZM3.49219 16.2188L3.42188 16.2656C3.42188 16.4688 3.57031 16.6016 3.86719 16.6641H3.91406L4.00781 16.5938C3.88281 16.4219 3.71094 16.2969 3.49219 16.2188ZM12.1875 16.2656H12.1641V16.4297L12.2344 16.5H12.2578V16.3125L12.1875 16.2656ZM2.50781 16.3594H2.4375C2.5625 16.7188 2.71875 16.9531 2.90625 17.0625H3.04688V16.8984C2.9375 16.7266 2.75781 16.5469 2.50781 16.3594ZM4.26562 17.0156H4.125V17.0391C4.125 17.0859 4.33594 17.1562 4.75781 17.25V17.2031C4.67969 17.0781 4.51562 17.0156 4.26562 17.0156ZM10.5938 17.3203V17.3672C10.7031 17.3672 10.7891 17.3125 10.8516 17.2031V17.1797H10.8281C10.7031 17.1797 10.625 17.2266 10.5938 17.3203ZM12.1172 17.3203L12.0938 17.3672L12.1172 17.4844L12.2344 17.4609V17.3672L12.1641 17.3203H12.1172ZM3.67969 17.625L3.63281 17.6953C3.64844 17.7578 3.98438 17.8906 4.64062 18.0938C4.64062 18.1562 4.77344 18.1875 5.03906 18.1875L5.15625 18.1406V18.1172C5.14062 18.0547 4.85156 17.9141 4.28906 17.6953C4.24219 17.6484 4.10938 17.625 3.89062 17.625H3.67969ZM4.80469 17.625L4.78125 17.6484V17.6953C5.1875 17.9609 5.6875 18.0938 6.28125 18.0938H6.44531L6.49219 18.0469C5.66406 17.7656 5.10156 17.625 4.80469 17.625ZM6.70312 17.8828C6.89062 18.0859 7.20312 18.1875 7.64062 18.1875C8.15625 18.1406 8.41406 18.0625 8.41406 17.9531V17.9062C8.41406 17.8281 8.21875 17.7891 7.82812 17.7891H7.47656C6.96094 17.7891 6.70312 17.8203 6.70312 17.8828ZM9.44531 17.8828L9.39844 17.9531H9.49219L9.53906 17.9062L9.51562 17.8828H9.44531ZM12.1641 18.1406L11.8125 18.1875V18.2812L11.9297 18.375H12.0469C12.4219 18.3125 12.6094 18.25 12.6094 18.1875V18.1406H12.1641ZM7.99219 18.5391L7.3125 18.7266V18.7969L7.6875 18.8672H7.82812C7.98438 18.8672 8.375 18.6953 9 18.3516V18.2812H8.97656C8.83594 18.2812 8.50781 18.3672 7.99219 18.5391ZM16.7812 5.29688L19.6875 5.22656C19.9375 5.22656 20.4609 5.33594 21.2578 5.55469C22.1641 6.41406 22.7031 7.08594 22.875 7.57031C23.2188 7.92969 23.4922 8.64062 23.6953 9.70312C23.9453 9.95312 24.0703 10.5078 24.0703 11.3672L24.0938 11.9531L24 14.2734C24 14.7422 24.2891 15.3203 24.8672 16.0078C25.3984 16.5234 25.7422 16.7812 25.8984 16.7812V16.8281C25.8984 17.0156 25.625 17.3125 25.0781 17.7188C24.6719 18.125 24.4141 18.3281 24.3047 18.3281H24.2812C24.0312 18.2969 23.3984 17.8359 22.3828 16.9453C20.5391 17.6641 19.6094 18.0312 19.5938 18.0469C18.9844 18.2344 18.3047 18.3281 17.5547 18.3281H17.4375C16.5938 18.1875 15.875 17.8594 15.2812 17.3438C15.1719 17.25 14.9453 16.8594 14.6016 16.1719C14.3203 15.8281 14.1797 15.4062 14.1797 14.9062V14.2266C14.1797 13.7891 14.2969 13.3828 14.5312 13.0078C14.7344 12.3672 15.0859 11.7578 15.5859 11.1797C15.8359 10.8828 16.0859 10.6953 16.3359 10.6172C17.1484 10.1797 17.9531 9.96094 18.75 9.96094L19.8047 9.9375H19.9453C20.5391 9.9375 20.9609 10.0234 21.2109 10.1953H21.3516C21.4297 10.1953 21.4688 10.1641 21.4688 10.1016C21.2969 9.36719 21.0156 8.66406 20.625 7.99219C20.2812 7.41406 19.6406 7.125 18.7031 7.125L17.7422 6.98438C16.9141 7.15625 16.5 7.32812 16.5 7.5C16.1719 7.92188 15.9766 8.44531 15.9141 9.07031C15.8828 9.14844 15.6016 9.1875 15.0703 9.1875L14.9297 9.23438C14.8672 9.23438 14.7891 9.36719 14.6953 9.63281C14.2578 9.57031 14.0391 9.47656 14.0391 9.35156C14.0703 9.25781 14.125 8.69531 14.2031 7.66406C14.4531 6.94531 15.0469 6.28125 15.9844 5.67188C16.4219 5.42188 16.6875 5.29688 16.7812 5.29688ZM19.4062 5.69531L19.3594 5.76562L19.4297 5.85938H19.5703L19.5938 5.8125L19.5234 5.69531H19.4062ZM21.1875 5.88281H21.1406V5.92969C21.2656 6.05469 21.375 6.11719 21.4688 6.11719H21.4922V6.07031C21.3672 5.94531 21.2656 5.88281 21.1875 5.88281ZM17.4375 6V6.07031C17.4531 6.11719 17.5312 6.14062 17.6719 6.14062C17.8125 6.14062 18.0078 6.09375 18.2578 6V5.90625H18.1641C17.8203 5.90625 17.5781 5.9375 17.4375 6ZM15.3281 6.75V6.79688H15.3516C15.4922 6.79688 15.7031 6.64844 15.9844 6.35156V6.28125H15.9609C15.8047 6.28125 15.5938 6.4375 15.3281 6.75ZM18.5859 6.58594L18.4688 6.67969L18.5391 6.79688H18.8438L18.9141 6.72656L18.7734 6.58594H18.5859ZM15.1406 8.48438L15.0703 8.53125V8.88281H15.0938C15.1562 8.86719 15.1875 8.8125 15.1875 8.71875V8.53125L15.1406 8.48438ZM23.6484 10.3594H23.625V10.4062C23.6562 10.5312 23.6875 10.5938 23.7188 10.5938L23.7422 10.4766C23.7109 10.3984 23.6797 10.3594 23.6484 10.3594ZM23.1094 11.1797L23.0391 11.2266V11.2969C23.1016 11.5312 23.1641 11.6484 23.2266 11.6484H23.2734C23.2734 11.4453 23.2266 11.2891 23.1328 11.1797H23.1094ZM16.2422 11.3203L15.9844 11.4375V11.5547H16.0312C16.1406 11.5547 16.2188 11.4922 16.2656 11.3672V11.3203H16.2422ZM15.9844 13.5469C16.0938 14.4844 16.2266 14.9531 16.3828 14.9531L16.6172 15.2578V15.2812L16.4062 15.2578V15.3281C16.7031 15.7344 17.3125 16.1094 18.2344 16.4531C18.3438 16.5156 18.5 16.5625 18.7031 16.5938C18.9844 16.5938 20.0625 16.1328 21.9375 15.2109C22.0625 15.1328 22.125 15.0469 22.125 14.9531V14.8359C21.9844 14.1953 21.8672 13.4453 21.7734 12.5859L21.7266 12.5625C21.7266 12.3906 21.5547 12.25 21.2109 12.1406C20.0547 11.8125 19.2656 11.6484 18.8438 11.6484C17.6562 11.9141 16.8438 12.3125 16.4062 12.8438C16.125 13.125 15.9844 13.3594 15.9844 13.5469ZM23.0391 12.0234L22.9688 11.9766V12.0469H23.0391V12.0234ZM23.1328 12.4688H22.9922V12.5625L23.0625 12.6328L23.1328 12.5625V12.4688ZM22.3828 13.0547L22.3125 13.125L22.3828 13.2188L22.4766 13.1953V13.125L22.4062 13.0547H22.3828ZM23.2266 13.125H23.1562V13.1484C23.1875 13.7422 23.25 14.0391 23.3438 14.0391L23.3906 13.9922V13.9453C23.3906 13.6172 23.3359 13.3438 23.2266 13.125ZM22.3125 13.875L22.2891 13.8984V14.0391L22.3594 14.1328H22.3828L22.4766 14.0391V13.8984L22.4062 13.875H22.3125ZM24.3047 16.0781H24.2344V16.2188C24.2969 16.4219 24.3672 16.5234 24.4453 16.5234H24.5156V16.4531C24.4531 16.2031 24.3828 16.0781 24.3047 16.0781ZM15.6797 16.1484L15.6328 16.1953V16.2188L15.6797 16.2656H15.7969V16.2188L15.7266 16.1484H15.6797ZM23.5781 16.4531L23.5078 16.5234C23.5547 16.6328 23.6172 16.7031 23.6953 16.7344H23.7188L23.8125 16.6406V16.5938L23.6953 16.4531H23.5781ZM20.1797 16.7812V16.8281H20.2734C20.4922 16.8281 20.7812 16.7344 21.1406 16.5469V16.5234H21.0469C20.5156 16.5859 20.2266 16.6719 20.1797 16.7812ZM24.0938 16.8516L24.0469 16.9453V16.9922L24.1406 17.0859H24.2344L24.3047 17.0391V16.9922L24.1875 16.8516H24.0938ZM18.3047 17.0391L18.2344 17.1094C18.2656 17.1875 18.3281 17.2266 18.4219 17.2266C18.5938 17.1953 18.6797 17.1562 18.6797 17.1094V17.0859L18.6094 17.0391H18.3047ZM15.75 17.3672L15.6797 17.4609C15.7422 17.6016 16.1328 17.7812 16.8516 18C17.0859 18.1094 17.3984 18.1641 17.7891 18.1641V18.1406C17.7891 18.0938 17.4922 18.0078 16.8984 17.8828C16.5547 17.7891 16.1953 17.6172 15.8203 17.3672H15.75ZM26.3672 6.1875L26.4141 6.14062C26.7734 6.20312 27.1484 6.23438 27.5391 6.23438H29.4609L29.5312 6.30469C29.4375 6.58594 29.3906 6.80469 29.3906 6.96094V7.35938C29.4531 7.79688 29.5781 8.01562 29.7656 8.01562C29.8594 7.84375 30.1719 7.67969 30.7031 7.52344C31.9688 6.97656 33 6.70312 33.7969 6.70312C34.3281 6.70312 34.8984 6.9375 35.5078 7.40625C35.9609 7.57812 36.3984 7.94531 36.8203 8.50781C37.4609 9.52344 37.7812 10.7188 37.7812 12.0938V12.2812L37.6172 13.9688L37.7812 15.1875L37.5469 16.2891V16.3359V16.5234L38.4375 16.5703H38.8359C39.1016 16.5703 39.2578 16.5938 39.3047 16.6406C39.2422 17.7812 39.125 18.3516 38.9531 18.3516C38.6406 18.5391 38.3047 18.6328 37.9453 18.6328H37.4531C36.7031 18.6328 35.9141 18.7344 35.0859 18.9375C34.5391 18.8594 34.2656 18.5859 34.2656 18.1172L34.2422 17.2734C34.2422 16.7578 34.375 16.3828 34.6406 16.1484C34.7812 15.3828 34.9453 14.6875 35.1328 14.0625L35.2734 11.9766C35.3203 11.9766 35.3438 11.8047 35.3438 11.4609C35.3438 11.0391 35.0078 10.4375 34.3359 9.65625C33.8203 9.4375 33.5234 9.32812 33.4453 9.32812C32.5391 9.32812 31.7266 9.71094 31.0078 10.4766C30.9453 10.4766 30.5625 10.8594 29.8594 11.625C29.6406 11.7969 29.5312 12.3203 29.5312 13.1953C29.5625 14.7734 29.6172 15.5625 29.6953 15.5625C30.3203 15.6719 30.6328 15.7891 30.6328 15.9141V16.0078L30.1172 15.9844L29.7422 16.0078V16.1016C29.7422 16.1641 30.0391 16.2422 30.6328 16.3359C30.7422 16.4453 30.7969 16.625 30.7969 16.875V16.9219C30.7969 17.2969 30.7188 17.6953 30.5625 18.1172L27.8438 18.1406C27.5781 18.1406 27.3828 18.0078 27.2578 17.7422C27.1953 17.4453 27.125 16.8672 27.0469 16.0078C27.0469 15.9297 27.2812 15.8438 27.75 15.75L27.8672 15.5859V15.5625C27.8672 15.4688 27.8047 15.3359 27.6797 15.1641V14.4375V13.1016L27.7734 10.9453C27.7734 9.47656 27.7109 8.74219 27.5859 8.74219H27.4688L26.3672 8.88281C26.2578 8.88281 26.1094 8.78906 25.9219 8.60156V8.50781C26 8.38281 26.0391 8.25 26.0391 8.10938L25.9922 7.24219L26.3672 6.1875ZM28.4062 6.60938L26.4844 6.91406V6.96094C26.4844 7.00781 26.6016 7.03906 26.8359 7.05469C27.8516 7.05469 28.3594 6.98438 28.3594 6.84375L28.4531 6.70312V6.65625H28.4062V6.60938ZM33.0703 7.05469V7.07812C33.1797 7.07812 33.3672 7.17188 33.6328 7.35938L33.8906 7.42969L34.6406 7.40625L34.6641 7.35938V7.33594C34.6484 7.24219 34.5625 7.19531 34.4062 7.19531H34.3125L34.0781 7.24219C33.7344 7.03906 33.4844 6.9375 33.3281 6.9375C33.1875 6.9375 33.1016 6.97656 33.0703 7.05469ZM31.4766 7.47656V7.5L31.5234 7.57031C32.2578 7.38281 32.625 7.24219 32.625 7.14844H32.5781C32.2344 7.14844 31.8672 7.25781 31.4766 7.47656ZM26.9531 7.5L27.0234 7.57031H27.0703C27.2734 7.55469 27.375 7.50781 27.375 7.42969L27.2578 7.40625C27.0547 7.40625 26.9531 7.4375 26.9531 7.5ZM27.1641 7.96875V8.01562L27.6094 7.99219H27.6797C27.8359 7.99219 27.9297 8.03125 27.9609 8.10938V8.17969C27.8828 8.25781 27.8438 8.33594 27.8438 8.41406C27.9219 8.47656 28.0156 8.50781 28.125 8.50781C28.1719 8.50781 28.1953 8.47656 28.1953 8.41406L28.2188 7.64062L28.1953 7.57031H28.125C28.0312 7.63281 27.7188 7.75781 27.1875 7.94531L27.1641 7.96875ZM31.0547 7.71094L31.0781 7.73438V7.75781C31.2188 7.71094 31.2891 7.67188 31.2891 7.64062V7.59375H31.2422C31.1172 7.625 31.0547 7.66406 31.0547 7.71094ZM26.3203 7.73438V7.75781C26.3203 7.80469 26.3594 7.84375 26.4375 7.875C26.5625 7.875 26.7031 7.80469 26.8594 7.66406V7.64062H26.4844C26.375 7.65625 26.3203 7.6875 26.3203 7.73438ZM34.4062 8.10938C34.4062 8.17188 34.5469 8.21875 34.8281 8.25C34.8906 8.20312 34.9219 8.14062 34.9219 8.0625C34.9219 7.98438 34.7969 7.92188 34.5469 7.875C34.4531 7.9375 34.4062 8.01562 34.4062 8.10938ZM29.6719 8.29688V8.39062C29.8906 8.39062 30.125 8.25 30.375 7.96875V7.94531L30.3516 7.92188H30.3281C30.1406 7.92188 29.9219 8.04688 29.6719 8.29688ZM35.2969 7.96875L35.2266 8.0625C35.2578 8.14062 35.3203 8.17969 35.4141 8.17969H35.5312L35.6484 8.08594V8.0625C35.6328 8 35.5547 7.96875 35.4141 7.96875H35.2969ZM32.6953 8.20312V8.25H32.8125C33.0469 8.21875 33.1641 8.17188 33.1641 8.10938V8.0625H33C32.7969 8.07812 32.6953 8.125 32.6953 8.20312ZM28.8516 8.08594H28.7344L28.6875 8.22656V8.64844C28.6875 8.83594 28.6562 8.96094 28.5938 9.02344V9.14062L28.6875 9.46875V9.65625C28.6875 9.78125 28.7266 9.86719 28.8047 9.91406C28.8203 9.91406 28.8672 9.73438 28.9453 9.375C29.1641 9.20312 29.2734 9.07031 29.2734 8.97656C29.2734 8.89844 29.1875 8.72656 29.0156 8.46094C28.9688 8.21094 28.9141 8.08594 28.8516 8.08594ZM26.5078 8.46094V8.50781H26.7422L26.8359 8.41406V8.39062L26.7188 8.34375C26.5781 8.39062 26.5078 8.42969 26.5078 8.46094ZM34.8984 8.53125L34.7578 8.46094L34.7109 8.50781V8.53125L34.8281 8.60156H34.8516L34.8984 8.53125ZM33.0938 8.69531L33.1406 8.74219H33.1641C33.5078 8.74219 33.6797 8.71094 33.6797 8.64844L33.4922 8.60156C33.2266 8.63281 33.0938 8.66406 33.0938 8.69531ZM29.6953 9.60938V9.67969C30.1016 9.63281 30.6641 9.29688 31.3828 8.67188V8.64844H31.2422C31.1797 8.64844 30.9922 8.75781 30.6797 8.97656C30.0234 9.17969 29.6953 9.39062 29.6953 9.60938ZM35.2969 8.69531H35.2734V8.76562C35.2734 8.8125 35.375 9.03125 35.5781 9.42188C35.5781 9.54688 35.6094 9.60938 35.6719 9.60938L35.7656 9.51562V9.42188C35.7656 9.17188 35.6094 8.92969 35.2969 8.69531ZM28.0078 8.97656L28.0547 9.04688H28.1016L28.1719 8.74219H28.1016C28.0547 8.74219 28.0234 8.82031 28.0078 8.97656ZM33.9141 9.14062V9.21094H34.5L34.5938 9.14062V9.04688L34.4766 8.97656H34.3594C34.0625 9.02344 33.9141 9.07812 33.9141 9.14062ZM31.5938 9.51562C31.9375 9.45312 32.1094 9.36719 32.1094 9.25781L32.0391 9.21094H31.9688C31.7344 9.21094 31.6094 9.3125 31.5938 9.51562ZM30.8438 9.79688V9.84375H30.9141C31.1641 9.64062 31.2891 9.46875 31.2891 9.32812H31.2422V9.28125C31.1172 9.28125 30.9844 9.45312 30.8438 9.79688ZM29.0391 9.5625L29.0859 9.70312C29.0859 9.82812 29.0156 9.95312 28.875 10.0781C28.9531 10.1562 28.9922 10.2344 28.9922 10.3125C28.9922 11.0938 29.0469 11.4844 29.1562 11.4844H29.1797C29.3047 11.2031 29.3672 10.8359 29.3672 10.3828C29.3516 9.80469 29.2812 9.5 29.1562 9.46875H29.1094C29.0625 9.46875 29.0391 9.5 29.0391 9.5625ZM35.6484 9.86719V9.9375C35.8359 10.6406 35.9531 11.0078 36 11.0391L36.0469 10.875V10.6641C35.9375 10.1328 35.8047 9.86719 35.6484 9.86719ZM36.7031 9.91406H36.6797C36.7109 10.7422 36.7891 11.1562 36.9141 11.1562H36.9609C36.8828 10.3281 36.7969 9.91406 36.7031 9.91406ZM30.5625 9.96094L30.4219 10.1484V10.1953L30.4453 10.2422H30.5625L30.6328 9.96094H30.5625ZM29.9062 10.1953L29.8594 10.2422L29.9062 10.3125H30V10.2422L29.9531 10.1953H29.9062ZM36.5391 12.9609V12.9844L36.6094 13.2656H36.7266C36.7109 13.0625 36.6484 12.9609 36.5391 12.9609ZM35.6484 14.6484L35.6719 14.6719H35.6953C35.7422 14.6719 35.7656 14.5938 35.7656 14.4375V14.1562C35.7031 14.1562 35.6641 14.3203 35.6484 14.6484ZM35.5078 15.0234C35.6016 15.1328 35.6484 15.2812 35.6484 15.4688H35.6953L35.7656 15.1875V14.7891C35.5938 14.7891 35.5078 14.8672 35.5078 15.0234ZM36.5391 14.8125H36.4922V14.9297H36.5391V14.8125ZM37.0781 14.9297L37.0312 15.3984V15.9844H37.0547C37.2578 15.7344 37.3594 15.5 37.3594 15.2812V15.2578C37.3594 15.0391 37.2656 14.9297 37.0781 14.9297ZM36.4688 16.0078V16.0547H36.4922L36.5859 15.7969V15.75H36.5391C36.4922 15.75 36.4688 15.8359 36.4688 16.0078ZM27.4219 16.1016L27.375 16.1953V16.2188C27.4062 16.5 27.5078 16.6406 27.6797 16.6406H27.8203L27.8906 16.5703V16.5234C27.75 16.3516 27.6797 16.2109 27.6797 16.1016H27.4219ZM36.5391 16.4297H36.4453V16.5234L36.5391 16.6172L36.6094 16.5703V16.5234L36.5391 16.4297ZM37.8047 16.9688V17.0391C38.5078 17.0391 38.8594 16.9844 38.8594 16.875V16.8281H38.5312C38.0469 16.8438 37.8047 16.8906 37.8047 16.9688ZM28.4062 17.2031C28.4062 17.2812 28.6094 17.3203 29.0156 17.3203C29.7969 17.3203 30.1875 17.2812 30.1875 17.2031C30.1875 17.1094 29.9219 17.0625 29.3906 17.0625C28.7969 17.0625 28.4688 17.1094 28.4062 17.2031ZM34.7578 17.2734H34.6875V17.4141L34.7578 17.4844H34.8281L34.8516 17.4141V17.3906L34.7578 17.2734ZM38.0156 17.4609V17.5312C38.0469 17.6094 38.1172 17.6484 38.2266 17.6484C38.4766 17.6484 38.625 17.5938 38.6719 17.4844V17.4141C38.6406 17.3203 38.5547 17.2734 38.4141 17.2734H38.2969C38.1406 17.2734 38.0469 17.3359 38.0156 17.4609ZM35.2734 17.8828C35.3203 18.0078 35.3984 18.0703 35.5078 18.0703C36.3516 18.0547 36.7734 18 36.7734 17.9062C36.6641 17.7656 36.4688 17.6953 36.1875 17.6953C35.5781 17.7109 35.2734 17.7734 35.2734 17.8828ZM34.6875 18.3281L34.5938 18.4219V18.4688C34.5938 18.5781 34.8047 18.6328 35.2266 18.6328H35.3438L35.5312 18.5859V18.5625C35.375 18.4062 35.125 18.3281 34.7812 18.3281H34.6875ZM49.0312 0.328125L50.0625 0.304688C50.7031 0.429688 51.0234 0.523438 51.0234 0.585938C51.0547 0.585938 51.0859 0.8125 51.1172 1.26562C51.2891 1.46875 51.375 1.60156 51.375 1.66406C51.2969 2.41406 51.2266 3.94531 51.1641 6.25781C51.1328 6.25781 51.1172 6.33594 51.1172 6.49219C50.9922 6.57031 50.9297 6.65625 50.9297 6.75V7.125C50.9297 7.4375 50.8516 7.79688 50.6953 8.20312L50.6719 8.53125C50.6719 8.59375 50.7578 8.64062 50.9297 8.67188V8.83594C50.6953 10.8203 50.5781 12.1172 50.5781 12.7266C50.5781 13.4453 50.5312 13.8047 50.4375 13.8047V13.8516C50.5312 13.8516 50.5859 13.9531 50.6016 14.1562L50.5781 14.3203V14.4141C50.5781 14.7109 50.4844 15.4297 50.2969 16.5703V17.1094C51.0781 17.2812 51.4688 17.5078 51.4688 17.7891L51.3516 17.9062V18.1172L51.4688 18.3047C51.3438 18.6328 50.8984 18.7969 50.1328 18.7969H49.9922L49.875 18.6094H49.6172L48.9844 18.75L48.0938 18.7266C48.0312 18.7266 47.9609 18.3281 47.8828 17.5312L47.9297 16.7812C47.7266 16.7812 47.4062 16.9531 46.9688 17.2969C45.6719 18.0156 44.5312 18.4062 43.5469 18.4688C42.6406 18.2344 41.8281 17.7812 41.1094 17.1094C40.875 16.875 40.6328 16.5078 40.3828 16.0078C40.1016 15.6172 39.9609 15.3828 39.9609 15.3047V15.2109H40.0312C40.1406 15.2891 40.3438 15.5547 40.6406 16.0078L40.7578 16.0312L40.7812 16.0078V15.7031C40.7812 15.3906 40.6172 15.0156 40.2891 14.5781H40.1719C40.0781 14.5781 40.0234 14.7188 40.0078 15H39.9375L39.8906 14.8828C39.9219 14.2734 39.9453 13.875 39.9609 13.6875H40.1016L40.125 13.8984H40.1719C40.25 13.8672 40.2891 13.7891 40.2891 13.6641V13.2188L40.2422 13.1484C40.1953 13.1484 40.1719 13.2109 40.1719 13.3359L40.0312 13.4766C40 13.4766 39.9766 13.4219 39.9609 13.3125C39.9609 12.1406 40.3438 10.8906 41.1094 9.5625C41.4688 8.9375 41.8281 8.4375 42.1875 8.0625C42.6875 7.60938 43.4766 7.38281 44.5547 7.38281H44.7656C46.4219 7.38281 47.7734 7.8125 48.8203 8.67188L48.9844 8.76562H49.0547C49.1953 8.07812 49.3359 6.33594 49.4766 3.53906C49.5547 3.41406 49.6172 3.35156 49.6641 3.35156C49.1641 3.02344 48.8203 2.85938 48.6328 2.85938C48.4922 2.85938 48.4062 2.32031 48.375 1.24219C48.4062 1.21094 48.5312 1.1875 48.75 1.17188V1.07812C48.7344 1.01563 48.6719 0.984375 48.5625 0.984375C48.4844 0.9375 48.4453 0.882812 48.4453 0.820312C48.4453 0.664063 48.625 0.585938 48.9844 0.585938V0.492188L48.8906 0.398438V0.351562L49.0312 0.328125ZM49.0547 1.33594L49.0312 1.40625V1.42969H49.3125V1.40625L49.2422 1.33594H49.0547ZM50.3672 1.57031L50.3203 1.64062V1.66406H50.6719V1.59375L50.5078 1.57031H50.3672ZM49.6406 2.01562L49.6875 2.08594C50.0625 2.07031 50.25 2.02344 50.25 1.94531L50.1562 1.875H49.875C49.7656 1.875 49.6875 1.92188 49.6406 2.01562ZM49.0312 1.92188L48.9844 1.99219V2.03906L49.1484 2.08594C49.2422 2.08594 49.2969 2.05469 49.3125 1.99219L49.2422 1.92188H49.0312ZM43.8281 7.99219L43.7578 8.08594V8.20312L43.8281 8.25H43.9453L44.0625 8.15625V8.08594L43.9688 7.99219H43.8281ZM45.2109 8.25L45.2578 8.34375H46.2891V8.25C46.1953 8.15625 45.9375 8.10156 45.5156 8.08594H45.2812C45.2344 8.10156 45.2109 8.15625 45.2109 8.25ZM50.8125 8.20312V8.08594H50.9297V8.20312H50.8125ZM42.2344 8.71875V8.8125L42.2812 8.83594H42.375C42.9219 8.69531 43.1953 8.53125 43.1953 8.34375C43.1797 8.28125 43.1016 8.25 42.9609 8.25H42.8438C42.6094 8.25 42.4062 8.40625 42.2344 8.71875ZM47.2734 8.48438L46.9453 8.50781H46.8984V8.57812C47.2734 8.73438 47.5156 8.8125 47.625 8.8125H47.6484C47.6484 8.65625 47.5234 8.54688 47.2734 8.48438ZM49.5469 8.60156H49.4531C49.4531 8.75781 49.4844 8.83594 49.5469 8.83594L49.5703 8.8125V8.74219L49.5469 8.60156ZM44.6016 9.02344L44.5547 9.07031L44.6016 9.09375H44.6953L44.7656 9.04688V9.02344H44.6016ZM41.2031 10.6641V10.7344H41.2734C41.3672 10.7031 41.4688 10.5234 41.5781 10.1953C42.0469 9.53906 42.3594 9.21094 42.5156 9.21094L42.6094 9.04688H42.4688C42.4062 9.04688 42.1484 9.20312 41.6953 9.51562C41.3984 9.95312 41.2344 10.3359 41.2031 10.6641ZM43.8281 9.1875L43.7812 9.25781H44.0156L44.0859 9.21094V9.1875H43.8281ZM45.0469 9.30469L45.0938 9.32812H45.1406L45.6562 9.25781V9.21094L45.4922 9.1875C45.1953 9.20312 45.0469 9.24219 45.0469 9.30469ZM46.2891 9.1875L46.2422 9.25781L46.3125 9.32812H46.4531L46.5 9.25781C46.4688 9.21094 46.4062 9.1875 46.3125 9.1875H46.2891ZM47.3672 9.21094H47.2734L47.3672 9.30469L47.4141 9.25781L47.3672 9.21094ZM47.8828 9.35156H47.625C47.625 9.41406 47.8516 9.50781 48.3047 9.63281H48.3281V9.5625C48.2031 9.42188 48.0547 9.35156 47.8828 9.35156ZM41.3438 13.9219V14.2734C41.3438 14.4922 41.6406 15.125 42.2344 16.1719C42.6719 16.4062 43.1406 16.5234 43.6406 16.5234C44.7188 16.5234 45.7656 16.2656 46.7812 15.75C47.2031 15.1094 47.5703 14.7891 47.8828 14.7891C48.0547 14.6172 48.2422 14.0312 48.4453 13.0312C48.5703 12.75 48.6328 12.4609 48.6328 12.1641V11.9297C48.6328 11.2734 48.5469 10.9453 48.375 10.9453C48.0156 10.6172 47.8359 10.4219 47.8359 10.3594L47.9297 10.2188C47.9297 10.1562 47.7031 10.0625 47.25 9.9375L47.1094 9.84375L47.1328 9.79688H47.4844V9.77344C47.4844 9.61719 46.6328 9.53125 44.9297 9.51562L44.6016 9.44531C43.3516 9.57031 42.7266 9.73438 42.7266 9.9375C42.1484 10.625 41.7734 11.4688 41.6016 12.4688C41.4297 13.0625 41.3438 13.5469 41.3438 13.9219ZM48.1875 10.2188L48.0938 10.3125V10.5L48.2109 10.6172H48.2812C48.3438 10.6016 48.375 10.5391 48.375 10.4297C48.375 10.3359 48.3281 10.2656 48.2344 10.2188H48.1875ZM40.9688 12.75C40.9688 12.7969 40.9922 12.8203 41.0391 12.8203C41.1484 12.8203 41.2266 12.6641 41.2734 12.3516V12.2109H41.2031C41.125 12.2109 41.0469 12.3906 40.9688 12.75ZM48.4219 16.2891V16.4297C48.5156 16.4297 48.5625 16.5 48.5625 16.6406H48.6094L48.7266 16.5234V16.3359C48.6641 16.2891 48.6328 16.2109 48.6328 16.1016H48.5625C48.4688 16.1172 48.4219 16.1797 48.4219 16.2891ZM46.6641 16.4766V16.5703H46.6875C46.8438 16.5078 46.9688 16.4062 47.0625 16.2656V16.2188L47.0156 16.1719H46.9688C46.8594 16.2188 46.7578 16.3203 46.6641 16.4766ZM44.3203 16.7812V16.8516H44.6016C45.6328 16.7891 46.2031 16.6406 46.3125 16.4062V16.3359H46.2422C45.0391 16.5391 44.3984 16.6875 44.3203 16.7812ZM49.6875 16.4297H49.6641L49.6406 16.6172V16.9219L49.6875 16.9922H49.7344L49.7812 16.9219V16.6875C49.7812 16.5312 49.75 16.4453 49.6875 16.4297ZM41.3906 16.6406H41.2969V16.7109C41.2969 16.8047 41.5547 16.875 42.0703 16.9219V16.8516C41.7109 16.7109 41.4844 16.6406 41.3906 16.6406ZM41.9297 17.0156L41.8594 17.0625C41.8594 17.2344 42.3203 17.4062 43.2422 17.5781H43.3594L43.4062 17.5312V17.5078C43.4062 17.3359 42.9609 17.1719 42.0703 17.0156H41.9297ZM48.5625 17.1094L48.4453 17.2031V17.25H48.5156L48.6094 17.1562V17.1094H48.5625ZM44.9062 17.2969V17.3438L44.9766 17.3906H45.1172C45.6172 17.3594 45.8672 17.3125 45.8672 17.25L45.7969 17.2031H45.3516C45.0547 17.2031 44.9062 17.2344 44.9062 17.2969ZM49.8516 17.2734H49.7344V17.3438L49.7812 17.3906H49.8984V17.3438L49.8516 17.2734ZM43.3359 17.9766V18.0469L43.3594 18.1172H43.6641C43.9141 18.1172 44.2812 18.0625 44.7656 17.9531V17.9062L44.0859 17.8359C43.5859 17.8672 43.3359 17.9141 43.3359 17.9766ZM50.2266 18.0234C50.2422 18.0859 50.3203 18.1172 50.4609 18.1172H50.9297L51.0938 18.0703V18.0234C51.0938 17.9766 51 17.9375 50.8125 17.9062C50.4219 17.9219 50.2266 17.9609 50.2266 18.0234ZM57.8203 6.23438C58.4766 6.23438 59.2734 6.51562 60.2109 7.07812C61.0078 7.67188 61.4062 8.07812 61.4062 8.29688C62.0312 9.60938 62.3438 10.3984 62.3438 10.6641L62.3672 10.8516C62.1328 11.3984 62.0156 11.7734 62.0156 11.9766L61.875 12H59.8828C59.6953 12 59.4688 12.0234 59.2031 12.0703C56.9531 11.8828 55.375 11.7891 54.4688 11.7891H53.9766C53.7891 12.0703 53.6953 12.2734 53.6953 12.3984C53.8047 12.5703 53.8594 12.8438 53.8594 13.2188C53.8594 13.8125 53.9531 14.1641 54.1406 14.2734L54.1641 14.3906V14.4141L54.0234 14.3438V14.4141L54.2344 14.6484C54.2344 14.8516 54.375 15.1094 54.6562 15.4219C55.1719 16.3281 55.7344 16.8906 56.3438 17.1094C56.8594 17.2812 57.4453 17.3672 58.1016 17.3672C58.2109 17.3672 58.4375 17.2656 58.7812 17.0625C59.0625 17 59.6562 16.4922 60.5625 15.5391V15.4688C60.5625 15.4375 60.4531 15.4062 60.2344 15.375L60.1875 15.2578C60.5469 14.5703 60.9766 14.1172 61.4766 13.8984C61.6172 14.0391 61.9062 14.2578 62.3438 14.5547C62.6875 15.0859 63.1484 15.7109 63.7266 16.4297V16.5234C63.2266 17.1797 62.8672 17.5078 62.6484 17.5078H62.5547C62.5547 17.1641 62.3438 16.9688 61.9219 16.9219C61.8438 16.9219 61.5 17.1797 60.8906 17.6953C60.5312 17.9766 59.9141 18.2422 59.0391 18.4922C58.0234 18.6953 57.3047 18.7969 56.8828 18.7969L55.5469 18.3281C54.7969 18.3281 54.1094 17.9219 53.4844 17.1094C53.2188 16.8281 53 16.4922 52.8281 16.1016C52.8281 15.9766 52.6562 15.3281 52.3125 14.1562C52.2031 13.7031 52.1484 13.2656 52.1484 12.8438V12.8203C52.1484 10.7422 52.7734 8.92188 54.0234 7.35938C54.1797 6.96875 54.5391 6.67969 55.1016 6.49219C55.4766 6.38281 55.9297 6.29688 56.4609 6.23438C56.6016 6.17188 57.0547 6.17188 57.8203 6.23438ZM55.6641 6.72656V6.75H55.7109C55.9609 6.75 56.4297 6.66406 57.1172 6.49219C57.2578 6.47656 57.3281 6.4375 57.3281 6.375L57.2578 6.30469H57.2344C56.7812 6.30469 56.2734 6.42969 55.7109 6.67969L55.6641 6.72656ZM54.7266 7.125V7.14844L54.7969 7.19531H54.8203C55.1328 7.11719 55.2891 7.03906 55.2891 6.96094V6.82031L55.1953 6.72656H55.1484C54.8672 6.82031 54.7266 6.95312 54.7266 7.125ZM58.3359 6.89062H57.6328V6.9375C57.6328 7 57.9531 7.04688 58.5938 7.07812H58.6172V6.98438C58.6172 6.95312 58.5234 6.92188 58.3359 6.89062ZM56.6719 7.24219V7.26562C56.6719 7.32812 56.9922 7.40625 57.6328 7.5L57.6797 7.47656V7.38281C57.5547 7.21094 57.3438 7.125 57.0469 7.125H56.9766C56.7734 7.14062 56.6719 7.17969 56.6719 7.24219ZM58.1016 7.38281V7.40625C58.9922 7.92188 59.4688 8.17969 59.5312 8.17969H59.5547L59.7891 8.08594L59.9297 8.13281L59.9531 8.08594V8.0625C59.8906 8.01562 59.7578 7.96875 59.5547 7.92188L59.0859 7.71094C58.9609 7.44531 58.7109 7.3125 58.3359 7.3125H58.2656C58.1562 7.32812 58.1016 7.35156 58.1016 7.38281ZM55.3125 8.0625C55.4688 7.9375 55.7812 7.80469 56.25 7.66406V7.61719L56.2266 7.57031H55.9922C55.5391 7.69531 55.3125 7.85938 55.3125 8.0625ZM54.0703 9.60938V9.67969C54.0703 9.85156 55.4922 10.0469 58.3359 10.2656L58.5703 10.3359L58.875 10.3125C59.5 10.5156 59.9219 10.6172 60.1406 10.6172C60.1406 10.6641 60.1875 10.7031 60.2812 10.7344C60.375 10.5938 60.4219 10.4609 60.4219 10.3359V9.89062C60.4219 9.6875 60.0312 9.23438 59.25 8.53125C58.8906 8.17188 58.4844 7.96875 58.0312 7.92188L57.2344 7.78125C55.9375 8.04688 55.0859 8.36719 54.6797 8.74219C54.5078 9.07031 54.3047 9.35938 54.0703 9.60938ZM54.3281 8.20312V8.25H54.375C54.5781 8.20312 54.6797 8.14844 54.6797 8.08594V8.0625H54.5625C54.4844 8.0625 54.4062 8.10938 54.3281 8.20312ZM59.9297 8.53125C59.9609 8.65625 60.0312 8.71875 60.1406 8.71875H60.1875L60.2344 8.64844V8.50781L60.1406 8.39062C60 8.39062 59.9297 8.4375 59.9297 8.53125ZM53.8828 8.64844L53.8359 8.71875V8.74219H53.8828L53.9766 8.67188V8.64844H53.8828ZM60.5156 8.83594H60.4219C60.5938 9.35156 60.7188 9.63281 60.7969 9.67969H60.8906L60.9609 9.63281C60.8359 9.13281 60.7031 8.88281 60.5625 8.88281L60.5156 8.83594ZM54.0938 9.25781C54.1875 9.24219 54.2344 9.17969 54.2344 9.07031V9.04688C54.1406 9.07812 54.0938 9.14844 54.0938 9.25781ZM61.3125 9.89062L61.2422 9.9375V10.1016L61.3125 10.1953C61.375 10.1797 61.4062 10.125 61.4062 10.0312V9.9375L61.3828 9.89062H61.3125ZM53.8359 10.2188V10.3125L53.8828 10.3594H53.9297C54.0391 10.3125 54.1328 10.2266 54.2109 10.1016V10.0312H54.0938C54 10.0312 53.9141 10.0938 53.8359 10.2188ZM52.875 10.0781C52.75 10.2031 52.6406 10.5156 52.5469 11.0156H52.5938C52.6875 11.0156 52.8281 10.7422 53.0156 10.1953C52.9844 10.1172 52.9375 10.0781 52.875 10.0781ZM55.2656 10.3594V10.4297C55.5625 10.6328 56.1016 10.7344 56.8828 10.7344H57.0938L57.3984 10.7109V10.6172C56.7578 10.4766 56.0469 10.3906 55.2656 10.3594ZM59.5547 10.9688H59.4844V11.0391H59.5547V10.9688ZM55.0312 11.1562V11.2031C55.3438 11.2812 56.1719 11.3594 57.5156 11.4375V11.4609V11.4844L57.0234 11.5547C57.0234 11.6016 57.2266 11.625 57.6328 11.625C58.2891 11.625 58.6172 11.5938 58.6172 11.5312C58.6172 11.375 57.4219 11.25 55.0312 11.1562ZM52.6641 11.3203H52.5469V11.4609C52.5469 11.5547 52.5703 11.6016 52.6172 11.6016C52.6953 11.6016 52.7422 11.5234 52.7578 11.3672L52.6641 11.3203ZM54.5625 11.3672L54.4453 11.3906V11.5312H54.5625V11.4375V11.3906V11.3672ZM53.8125 11.5547V11.5781H53.8359L54.2344 11.5312V11.4844L54.1641 11.3906H54.0938C53.9531 11.3906 53.8594 11.4453 53.8125 11.5547ZM59.5078 11.6016C59.5078 11.6641 59.6484 11.6953 59.9297 11.6953L60.1406 11.6719V11.625C60.1406 11.5625 59.9922 11.5312 59.6953 11.5312C59.5703 11.5625 59.5078 11.5859 59.5078 11.6016ZM52.5469 12.2109V12.2812V12.3047C52.5312 12.3516 52.5234 12.4609 52.5234 12.6328V12.7266C52.5234 13.0078 52.6016 13.2578 52.7578 13.4766H52.7812C52.7812 12.7266 52.7031 12.3047 52.5469 12.2109ZM52.9688 14.25H52.8984V14.2969L52.9688 14.3438H53.0156V14.2969L52.9688 14.25ZM53.1328 14.6484L53.1094 14.6719V14.7188C53.1719 14.9688 53.2656 15.0938 53.3906 15.0938V15.0703V15.0234C53.3906 14.8984 53.3047 14.7734 53.1328 14.6484ZM60.7734 14.8594L60.8203 14.9297H60.9375C61.0312 14.9297 61.0859 14.8984 61.1016 14.8359L61.0078 14.7422H60.9844C60.875 14.7422 60.8047 14.7812 60.7734 14.8594ZM60.2344 16.2188L60.2812 16.2422H60.3047C60.4766 16.2422 60.5859 16.1406 60.6328 15.9375V15.8906C60.4609 15.8906 60.3281 16 60.2344 16.2188ZM61.875 16.1719L61.8984 16.1953H61.9688C62.0625 16.1328 62.1094 16.0469 62.1094 15.9375H62.0391C61.9297 16 61.875 16.0781 61.875 16.1719ZM62.6953 15.9375H62.6719V15.9844C62.7188 16.1719 62.7891 16.2656 62.8828 16.2656H62.9062L62.9531 16.2188V16.1953C62.9219 16.0234 62.8359 15.9375 62.6953 15.9375ZM61.3359 16.4297L61.4062 16.4766C61.6406 16.3984 61.7578 16.2969 61.7578 16.1719V16.125H61.7344C61.5156 16.125 61.3828 16.2266 61.3359 16.4297ZM59.5078 16.9453H59.5547C59.6797 16.8984 59.75 16.8203 59.7656 16.7109L59.7422 16.6875C59.5859 16.7812 59.5078 16.8672 59.5078 16.9453ZM60.8906 17.0625H60.9844C61.1406 16.9219 61.2188 16.8203 61.2188 16.7578H61.1953C60.9922 16.8203 60.8906 16.9219 60.8906 17.0625ZM54.2344 17.2734H54.1641V17.3672C54.1953 17.4453 54.3281 17.5312 54.5625 17.625L54.6562 17.6953C54.4844 17.4297 54.3438 17.2891 54.2344 17.2734ZM55.875 17.3672H55.8516V17.3906C55.8516 17.4531 56.0156 17.5234 56.3438 17.6016L56.3672 17.5781V17.5312C56.1641 17.4219 56 17.3672 55.875 17.3672ZM57.2578 17.625H57.1875V17.6953H57.2578V17.625ZM59.6953 17.9766C59.8516 17.9766 59.9766 17.8594 60.0703 17.625H60C59.7969 17.7344 59.6953 17.8516 59.6953 17.9766ZM58.0547 18.2109L57.5625 18.1641H57.4688C57.3281 18.1641 57.25 18.1953 57.2344 18.2578V18.3047L57.3281 18.375H57.75C58.2344 18.375 58.8047 18.2891 59.4609 18.1172C59.4297 18.0234 59.3359 17.9766 59.1797 17.9766H59.0625C58.6875 17.9766 58.3516 18.0547 58.0547 18.2109ZM65.1797 0.492188L65.5312 0.398438L66.5156 0.65625L68.0391 0.585938C68.4297 0.585938 68.625 0.703125 68.625 0.9375C68.5312 1.53125 68.4844 2.32031 68.4844 3.30469V6.98438L68.4609 10.5234L68.4844 11.4609L68.3672 15.9141C68.8984 16.0547 69.7031 16.1562 70.7812 16.2188L70.8047 16.2422V16.5703C70.8047 16.6484 70.8906 16.7734 71.0625 16.9453C70.8906 17.3203 70.6953 17.875 70.4766 18.6094L70.2656 18.7734H70.1953C70.1016 18.6328 69.9062 18.5625 69.6094 18.5625L65.7656 18.0469C64.6094 18.0469 64.0312 17.9766 64.0312 17.8359C64.2188 17.4609 64.3594 16.8516 64.4531 16.0078H64.4766V15.9844L64.7109 16.0078H64.9453C65.0234 15.9609 65.25 15.8984 65.625 15.8203C65.7812 15.8984 65.8984 15.9375 65.9766 15.9375H66.2578C66.4141 15.9375 66.4922 15.7812 66.4922 15.4688C66.5234 15.0938 66.6016 13.3828 66.7266 10.3359C66.6172 9.39844 66.5234 6.82031 66.4453 2.60156C66.3828 2.49219 66.3047 2.4375 66.2109 2.4375L65.1562 2.50781C64.9688 2.49219 64.875 2.42969 64.875 2.32031C64.9375 1.10156 65.0391 0.492188 65.1797 0.492188ZM65.4141 0.9375L65.2734 0.984375V1.03125C65.2734 1.17188 65.3516 1.24219 65.5078 1.24219H65.5781C65.75 1.24219 65.9219 1.15625 66.0938 0.984375V0.9375H65.4141ZM66.6094 0.9375L66.5625 1.00781L66.75 1.05469H66.9844L67.0781 0.984375V0.9375H66.6094ZM67.3594 1.85156V1.875L67.4297 1.94531H67.5234C67.6641 1.85156 67.8359 1.75781 68.0391 1.66406C68.1172 1.53906 68.1562 1.44531 68.1562 1.38281L68.1094 1.33594H68.0391C67.8984 1.33594 67.7578 1.42187 67.6172 1.59375C67.4453 1.64062 67.3594 1.72656 67.3594 1.85156ZM65.2969 1.47656L65.1797 1.59375V1.75781L65.2734 1.85156H65.7422H65.9062V1.75781L65.4844 1.57031L65.3438 1.47656H65.2969ZM67.125 3.375L67.0781 3.44531V3.53906L67.125 3.60938H67.1719L67.1953 3.53906V3.44531L67.1719 3.375H67.125ZM67.0781 4.6875L67.0078 4.75781V4.80469H67.125V4.6875H67.0781ZM68.1094 6.30469H68.0391V6.32812L68.1328 6.44531H68.1562V6.375L68.1094 6.30469ZM68.1562 6.72656L68.0625 6.65625L68.0391 7.125V7.40625H68.0625C68.125 7.40625 68.1562 7.29688 68.1562 7.07812V6.72656ZM66.9375 7.26562V7.35938L66.9844 7.40625L67.0312 7.35938V7.24219L67.0078 7.19531C67.0078 7.17969 67.0703 7.13281 67.1953 7.05469V6.98438H67.1016C66.9922 7.04688 66.9375 7.14062 66.9375 7.26562ZM68.1328 7.57031H68.0391V7.75781H68.0625L68.1328 7.71094V7.57031ZM67.2656 10.2422V10.3125H67.3125C67.3906 10.3125 67.4297 9.99219 67.4297 9.35156C67.3984 9.35156 67.3438 9.64844 67.2656 10.2422ZM67.8047 11.3438L67.7578 11.3906L67.7109 12.8672V14.8359L67.7578 15.75L67.7812 15.7734H67.9453C68.0078 15.7734 68.0391 15.7031 68.0391 15.5625C68.0234 12.75 67.9453 11.3438 67.8047 11.3438ZM66.8438 14.8359V14.9297C66.8438 15.0391 66.875 15.0938 66.9375 15.0938L67.0312 14.9531V14.7891C67 14.6016 66.9688 14.5078 66.9375 14.5078C66.875 14.5078 66.8438 14.6172 66.8438 14.8359ZM65.4375 16.3594L65.3906 16.4297C65.3906 16.5547 65.4453 16.6172 65.5547 16.6172H65.5781V16.4297L65.5078 16.3594H65.4375ZM70.0547 16.3594L69.9141 16.3828V16.4297C69.9297 16.5234 70.0625 16.5703 70.3125 16.5703L70.4297 16.4766V16.3828L70.2891 16.3594H70.0547ZM64.7578 16.4297L64.7109 16.5V16.5703L64.8047 16.6172L64.8516 16.5234L64.8281 16.4297H64.7578ZM65.9062 16.6875V16.7109L66.0234 16.7344H66.1641L66.2578 16.6875V16.6172H66.0938H66.0703C65.9609 16.6172 65.9062 16.6406 65.9062 16.6875ZM70.1484 17.0625L68.8125 17.0156V17.0391C68.8125 17.1328 69.0781 17.1875 69.6094 17.2031H70.2188L70.3828 17.1562V17.0859L70.1484 17.0625ZM65.7422 17.0859L65.6719 17.2031L65.7188 17.2734H66.0703C66.3203 17.2734 66.4453 17.25 66.4453 17.2031V17.1562C66.2734 17.1094 66.0547 17.0859 65.7891 17.0859H65.7422ZM69.3984 17.6719L69.4922 17.6953H69.9609C70.1016 17.6953 70.1797 17.6719 70.1953 17.625V17.5547L70.0547 17.5312H69.7031C69.5 17.5469 69.3984 17.5938 69.3984 17.6719ZM64.4766 17.5547L64.4062 17.6719L64.4766 17.6953H64.5938L64.6641 17.6719L64.5703 17.5547H64.4766ZM70.0781 18.1172H69.9375V18.2109L70.0781 18.2578H70.1484L70.2891 18.2109V18.1172H70.1484H70.0781ZM72.5859 0.492188L72.9375 0.398438L73.9219 0.65625L75.4453 0.585938C75.8359 0.585938 76.0312 0.703125 76.0312 0.9375C75.9375 1.53125 75.8906 2.32031 75.8906 3.30469V6.98438L75.8672 10.5234L75.8906 11.4609L75.7734 15.9141C76.3047 16.0547 77.1094 16.1562 78.1875 16.2188L78.2109 16.2422V16.5703C78.2109 16.6484 78.2969 16.7734 78.4688 16.9453C78.2969 17.3203 78.1016 17.875 77.8828 18.6094L77.6719 18.7734H77.6016C77.5078 18.6328 77.3125 18.5625 77.0156 18.5625L73.1719 18.0469C72.0156 18.0469 71.4375 17.9766 71.4375 17.8359C71.625 17.4609 71.7656 16.8516 71.8594 16.0078H71.8828V15.9844L72.1172 16.0078H72.3516C72.4297 15.9609 72.6562 15.8984 73.0312 15.8203C73.1875 15.8984 73.3047 15.9375 73.3828 15.9375H73.6641C73.8203 15.9375 73.8984 15.7812 73.8984 15.4688C73.9297 15.0938 74.0078 13.3828 74.1328 10.3359C74.0234 9.39844 73.9297 6.82031 73.8516 2.60156C73.7891 2.49219 73.7109 2.4375 73.6172 2.4375L72.5625 2.50781C72.375 2.49219 72.2812 2.42969 72.2812 2.32031C72.3438 1.10156 72.4453 0.492188 72.5859 0.492188ZM72.8203 0.9375L72.6797 0.984375V1.03125C72.6797 1.17188 72.7578 1.24219 72.9141 1.24219H72.9844C73.1562 1.24219 73.3281 1.15625 73.5 0.984375V0.9375H72.8203ZM74.0156 0.9375L73.9688 1.00781L74.1562 1.05469H74.3906L74.4844 0.984375V0.9375H74.0156ZM74.7656 1.85156V1.875L74.8359 1.94531H74.9297C75.0703 1.85156 75.2422 1.75781 75.4453 1.66406C75.5234 1.53906 75.5625 1.44531 75.5625 1.38281L75.5156 1.33594H75.4453C75.3047 1.33594 75.1641 1.42187 75.0234 1.59375C74.8516 1.64062 74.7656 1.72656 74.7656 1.85156ZM72.7031 1.47656L72.5859 1.59375V1.75781L72.6797 1.85156H73.1484H73.3125V1.75781L72.8906 1.57031L72.75 1.47656H72.7031ZM74.5312 3.375L74.4844 3.44531V3.53906L74.5312 3.60938H74.5781L74.6016 3.53906V3.44531L74.5781 3.375H74.5312ZM74.4844 4.6875L74.4141 4.75781V4.80469H74.5312V4.6875H74.4844ZM75.5156 6.30469H75.4453V6.32812L75.5391 6.44531H75.5625V6.375L75.5156 6.30469ZM75.5625 6.72656L75.4688 6.65625L75.4453 7.125V7.40625H75.4688C75.5312 7.40625 75.5625 7.29688 75.5625 7.07812V6.72656ZM74.3438 7.26562V7.35938L74.3906 7.40625L74.4375 7.35938V7.24219L74.4141 7.19531C74.4141 7.17969 74.4766 7.13281 74.6016 7.05469V6.98438H74.5078C74.3984 7.04688 74.3438 7.14062 74.3438 7.26562ZM75.5391 7.57031H75.4453V7.75781H75.4688L75.5391 7.71094V7.57031ZM74.6719 10.2422V10.3125H74.7188C74.7969 10.3125 74.8359 9.99219 74.8359 9.35156C74.8047 9.35156 74.75 9.64844 74.6719 10.2422ZM75.2109 11.3438L75.1641 11.3906L75.1172 12.8672V14.8359L75.1641 15.75L75.1875 15.7734H75.3516C75.4141 15.7734 75.4453 15.7031 75.4453 15.5625C75.4297 12.75 75.3516 11.3438 75.2109 11.3438ZM74.25 14.8359V14.9297C74.25 15.0391 74.2812 15.0938 74.3438 15.0938L74.4375 14.9531V14.7891C74.4062 14.6016 74.375 14.5078 74.3438 14.5078C74.2812 14.5078 74.25 14.6172 74.25 14.8359ZM72.8438 16.3594L72.7969 16.4297C72.7969 16.5547 72.8516 16.6172 72.9609 16.6172H72.9844V16.4297L72.9141 16.3594H72.8438ZM77.4609 16.3594L77.3203 16.3828V16.4297C77.3359 16.5234 77.4688 16.5703 77.7188 16.5703L77.8359 16.4766V16.3828L77.6953 16.3594H77.4609ZM72.1641 16.4297L72.1172 16.5V16.5703L72.2109 16.6172L72.2578 16.5234L72.2344 16.4297H72.1641ZM73.3125 16.6875V16.7109L73.4297 16.7344H73.5703L73.6641 16.6875V16.6172H73.5H73.4766C73.3672 16.6172 73.3125 16.6406 73.3125 16.6875ZM77.5547 17.0625L76.2188 17.0156V17.0391C76.2188 17.1328 76.4844 17.1875 77.0156 17.2031H77.625L77.7891 17.1562V17.0859L77.5547 17.0625ZM73.1484 17.0859L73.0781 17.2031L73.125 17.2734H73.4766C73.7266 17.2734 73.8516 17.25 73.8516 17.2031V17.1562C73.6797 17.1094 73.4609 17.0859 73.1953 17.0859H73.1484ZM76.8047 17.6719L76.8984 17.6953H77.3672C77.5078 17.6953 77.5859 17.6719 77.6016 17.625V17.5547L77.4609 17.5312H77.1094C76.9062 17.5469 76.8047 17.5938 76.8047 17.6719ZM71.8828 17.5547L71.8125 17.6719L71.8828 17.6953H72L72.0703 17.6719L71.9766 17.5547H71.8828ZM77.4844 18.1172H77.3438V18.2109L77.4844 18.2578H77.5547L77.6953 18.2109V18.1172H77.5547H77.4844ZM81.9609 5.29688L84.8672 5.22656C85.1172 5.22656 85.6406 5.33594 86.4375 5.55469C87.3438 6.41406 87.8828 7.08594 88.0547 7.57031C88.3984 7.92969 88.6719 8.64062 88.875 9.70312C89.125 9.95312 89.25 10.5078 89.25 11.3672L89.2734 11.9531L89.1797 14.2734C89.1797 14.7422 89.4688 15.3203 90.0469 16.0078C90.5781 16.5234 90.9219 16.7812 91.0781 16.7812V16.8281C91.0781 17.0156 90.8047 17.3125 90.2578 17.7188C89.8516 18.125 89.5938 18.3281 89.4844 18.3281H89.4609C89.2109 18.2969 88.5781 17.8359 87.5625 16.9453C85.7188 17.6641 84.7891 18.0312 84.7734 18.0469C84.1641 18.2344 83.4844 18.3281 82.7344 18.3281H82.6172C81.7734 18.1875 81.0547 17.8594 80.4609 17.3438C80.3516 17.25 80.125 16.8594 79.7812 16.1719C79.5 15.8281 79.3594 15.4062 79.3594 14.9062V14.2266C79.3594 13.7891 79.4766 13.3828 79.7109 13.0078C79.9141 12.3672 80.2656 11.7578 80.7656 11.1797C81.0156 10.8828 81.2656 10.6953 81.5156 10.6172C82.3281 10.1797 83.1328 9.96094 83.9297 9.96094L84.9844 9.9375H85.125C85.7188 9.9375 86.1406 10.0234 86.3906 10.1953H86.5312C86.6094 10.1953 86.6484 10.1641 86.6484 10.1016C86.4766 9.36719 86.1953 8.66406 85.8047 7.99219C85.4609 7.41406 84.8203 7.125 83.8828 7.125L82.9219 6.98438C82.0938 7.15625 81.6797 7.32812 81.6797 7.5C81.3516 7.92188 81.1562 8.44531 81.0938 9.07031C81.0625 9.14844 80.7812 9.1875 80.25 9.1875L80.1094 9.23438C80.0469 9.23438 79.9688 9.36719 79.875 9.63281C79.4375 9.57031 79.2188 9.47656 79.2188 9.35156C79.25 9.25781 79.3047 8.69531 79.3828 7.66406C79.6328 6.94531 80.2266 6.28125 81.1641 5.67188C81.6016 5.42188 81.8672 5.29688 81.9609 5.29688ZM84.5859 5.69531L84.5391 5.76562L84.6094 5.85938H84.75L84.7734 5.8125L84.7031 5.69531H84.5859ZM86.3672 5.88281H86.3203V5.92969C86.4453 6.05469 86.5547 6.11719 86.6484 6.11719H86.6719V6.07031C86.5469 5.94531 86.4453 5.88281 86.3672 5.88281ZM82.6172 6V6.07031C82.6328 6.11719 82.7109 6.14062 82.8516 6.14062C82.9922 6.14062 83.1875 6.09375 83.4375 6V5.90625H83.3438C83 5.90625 82.7578 5.9375 82.6172 6ZM80.5078 6.75V6.79688H80.5312C80.6719 6.79688 80.8828 6.64844 81.1641 6.35156V6.28125H81.1406C80.9844 6.28125 80.7734 6.4375 80.5078 6.75ZM83.7656 6.58594L83.6484 6.67969L83.7188 6.79688H84.0234L84.0938 6.72656L83.9531 6.58594H83.7656ZM80.3203 8.48438L80.25 8.53125V8.88281H80.2734C80.3359 8.86719 80.3672 8.8125 80.3672 8.71875V8.53125L80.3203 8.48438ZM88.8281 10.3594H88.8047V10.4062C88.8359 10.5312 88.8672 10.5938 88.8984 10.5938L88.9219 10.4766C88.8906 10.3984 88.8594 10.3594 88.8281 10.3594ZM88.2891 11.1797L88.2188 11.2266V11.2969C88.2812 11.5312 88.3438 11.6484 88.4062 11.6484H88.4531C88.4531 11.4453 88.4062 11.2891 88.3125 11.1797H88.2891ZM81.4219 11.3203L81.1641 11.4375V11.5547H81.2109C81.3203 11.5547 81.3984 11.4922 81.4453 11.3672V11.3203H81.4219ZM81.1641 13.5469C81.2734 14.4844 81.4062 14.9531 81.5625 14.9531L81.7969 15.2578V15.2812L81.5859 15.2578V15.3281C81.8828 15.7344 82.4922 16.1094 83.4141 16.4531C83.5234 16.5156 83.6797 16.5625 83.8828 16.5938C84.1641 16.5938 85.2422 16.1328 87.1172 15.2109C87.2422 15.1328 87.3047 15.0469 87.3047 14.9531V14.8359C87.1641 14.1953 87.0469 13.4453 86.9531 12.5859L86.9062 12.5625C86.9062 12.3906 86.7344 12.25 86.3906 12.1406C85.2344 11.8125 84.4453 11.6484 84.0234 11.6484C82.8359 11.9141 82.0234 12.3125 81.5859 12.8438C81.3047 13.125 81.1641 13.3594 81.1641 13.5469ZM88.2188 12.0234L88.1484 11.9766V12.0469H88.2188V12.0234ZM88.3125 12.4688H88.1719V12.5625L88.2422 12.6328L88.3125 12.5625V12.4688ZM87.5625 13.0547L87.4922 13.125L87.5625 13.2188L87.6562 13.1953V13.125L87.5859 13.0547H87.5625ZM88.4062 13.125H88.3359V13.1484C88.3672 13.7422 88.4297 14.0391 88.5234 14.0391L88.5703 13.9922V13.9453C88.5703 13.6172 88.5156 13.3438 88.4062 13.125ZM87.4922 13.875L87.4688 13.8984V14.0391L87.5391 14.1328H87.5625L87.6562 14.0391V13.8984L87.5859 13.875H87.4922ZM89.4844 16.0781H89.4141V16.2188C89.4766 16.4219 89.5469 16.5234 89.625 16.5234H89.6953V16.4531C89.6328 16.2031 89.5625 16.0781 89.4844 16.0781ZM80.8594 16.1484L80.8125 16.1953V16.2188L80.8594 16.2656H80.9766V16.2188L80.9062 16.1484H80.8594ZM88.7578 16.4531L88.6875 16.5234C88.7344 16.6328 88.7969 16.7031 88.875 16.7344H88.8984L88.9922 16.6406V16.5938L88.875 16.4531H88.7578ZM85.3594 16.7812V16.8281H85.4531C85.6719 16.8281 85.9609 16.7344 86.3203 16.5469V16.5234H86.2266C85.6953 16.5859 85.4062 16.6719 85.3594 16.7812ZM89.2734 16.8516L89.2266 16.9453V16.9922L89.3203 17.0859H89.4141L89.4844 17.0391V16.9922L89.3672 16.8516H89.2734ZM83.4844 17.0391L83.4141 17.1094C83.4453 17.1875 83.5078 17.2266 83.6016 17.2266C83.7734 17.1953 83.8594 17.1562 83.8594 17.1094V17.0859L83.7891 17.0391H83.4844ZM80.9297 17.3672L80.8594 17.4609C80.9219 17.6016 81.3125 17.7812 82.0312 18C82.2656 18.1094 82.5781 18.1641 82.9688 18.1641V18.1406C82.9688 18.0938 82.6719 18.0078 82.0781 17.8828C81.7344 17.7891 81.375 17.6172 81 17.3672H80.9297Z"
          fill="#EE7267"/>
</svg>
